<svg xmlns="http://www.w3.org/2000/svg" viewBox="0 0 128 128" role="img" aria-labelledby="t d">
<title id="t">UNITY convergence symbol</title><desc id="d">Three soft asymmetric facets flowing toward a common foundation</desc>
<defs><linearGradient id="a" x1="0" y1="0" x2="1" y2="1"><stop stop-color="#81ADA9"/><stop offset="1" stop-color="#456F78"/></linearGradient><linearGradient id="b" x1="0" y1="0" x2="1" y2="1"><stop stop-color="#D5C0AF"/><stop offset="1" stop-color="#ABB8BA"/></linearGradient><linearGradient id="c" x1="0" y1="0" x2="1" y2="1"><stop stop-color="#A9CBC5"/><stop offset="1" stop-color="#70959F"/></linearGradient></defs>
<path d="M62 11c-9 8-19 21-23 35-5 17-2 32 8 48 7 10 13 15 15 18 3-15 7-29 14-42 3-7 7-15 5-24-2-14-11-28-19-35Z" fill="url(#b)"/>
<path d="M35 35C20 47 12 64 15 81c3 19 18 31 42 38-6-23-7-44-4-62-5-8-11-16-18-22Z" fill="url(#a)"/>
<path d="M91 32C79 41 71 57 67 76c-4 16-6 30-4 43 29-8 44-22 49-43 3-17-5-34-21-44Z" fill="url(#c)"/>
</svg>